<?xml version="1.0" encoding="UTF-8" standalone="no"?>
<!-- Created with Inkscape (http://www.inkscape.org/) -->
<svg
        version="1.1"
        id="svg1"
        width="913.91998"
        height="560.64001"
        viewBox="0 0 913.91998 560.64001"
        sodipodiDocname="FlannanMapSymbols.svg"
        inkscapeVersion="1.4 (86a8ad7, 2024-10-11)"
        xmlnsInkscape="http://www.inkscape.org/namespaces/inkscape"
        xmlnsSodipodi="http://sodipodi.sourceforge.net/DTD/sodipodi-0.dtd"
        xmlnsXlink="http://www.w3.org/1999/xlink"
        xmlns="http://www.w3.org/2000/svg"
        xmlnsSvg="http://www.w3.org/2000/svg">
  <sodipodiNamedview
          id="namedview18"
          pagecolor="#ffffff"
          bordercolor="#000000"
          borderopacity="0.25"
          inkscapeShowpageshadow="2"
          inkscapePageopacity="0.0"
          inkscapePagecheckerboard="0"
          inkscapeDeskcolor="#d1d1d1"
          inkscapeZoom="1.4819678"
          inkscapeCx="419.03743"
          inkscapeCy="312.75982"
          inkscapeWindow-width="2560"
          inkscapeWindow-height="1377"
          inkscapeWindow-x="-8"
          inkscapeWindow-y="-8"
          inkscapeWindow-maximized="1"
          inkscapeCurrent-layer="svg1" />
  <defs
          id="defs1" />
  <g
          inkscapeGroupmode="layer"
          inkscapeLabel="Image"
          id="g1">
    <image
            width="913.92002"
            height="560.64001"
            preserveAspectRatio="none"
            xlinkHref="FlannanMap.jpg"
            id="image1"
            inkscapeLabel="image1" />
  </g>
  <symbol id="west">
    <symbol
            id="Roaiream">
      <g
              id="layer1"
              style="display:inline">
        <path
                style="fill:#ffcc00"
                d="m 148.39068,119.58332 -12.22673,8.34996 0.89464,1.72963 h 1.72964 l -0.23858,1.13321 -2.02784,2.3857 -4.47319,0.835 -3.10142,3.45927 1.72964,1.9682 1.84892,3.75748 1.84892,5.24855 h 3.45926 l 1.96821,-0.47714 1.84892,2.08749 -0.71571,2.68391 6.26247,2.62428 1.61034,-1.96821 1.37178,-0.17893 0.23857,-1.9682 2.02785,-0.59643 -0.0596,-3.04177 4.41355,-1.43142 3.28034,-4.11533 3.33998,-6.14319 -0.35786,-2.62427 1.84892,-2.56463 -0.14011,-2.84206 -1.05274,-2.2872 -1.66999,0.23857 -6.0239,-4.59248 -8.23067,3.28034 -0.35785,-1.31213 0.89463,-1.07357 1.61035,-2.50498 z"
                id="path1" />
        <path
                style="fill:#ffcc00"
                d="m 130.55755,132.64504 h 0.50696 l 0.50697,-1.16303 0.9841,0.23857 0.17893,0.71571 -1.31214,1.16303 -0.77535,-0.29821 z"
                id="path2" />
        <path
                style="fill:#ffcc00"
                d="m 116.60119,149.94138 0.0596,1.66999 h 5.06961 l 2.74356,-0.65606 -2.44534,-1.07357 z"
                id="path3" />
        <path
                style="fill:#ffcc00"
                d="m 125.48794,152.68494 2.62427,-3.10141 4.83104,1.37178 0.29822,2.08749 -3.45927,-0.4175 -1.31214,0.59642 z"
                id="path4" />
        <path
                style="fill:#ffcc00"
                d="m 121.84974,164.01703 0.65607,-1.96821 2.02784,-0.83499 0.77536,1.31213 -2.02785,2.20678 z"
                id="path6" />
        <path
                style="fill:#ffcc00"
                d="m 128.52971,162.76453 2.56463,-2.26641 2.32606,0.89463 -0.4175,0.89464 -2.32606,1.37178 z"
                id="path7" />
      </g>
    </symbol>
    <symbol
            id="Poll nan Ròn">
      <g
              id="layer2"
              style="display:inline">
        <path
                style="fill:#00ff66"
                d="m 147.19783,159.7824 0.17892,1.43143 3.45927,0.35785 3.10141,1.49106 4.11534,-0.11928 1.43142,-1.9682 1.96821,-1.07357 0.41749,1.84892 1.67,-0.4175 6.32211,-4.71176 1.78927,-4.77141 -6.20282,0.11929 -2.20678,1.01392 -1.19285,2.20678 -1.13321,-1.07357 0.89464,-4.65212 -0.4175,-1.61035 -2.8032,1.90857 -2.44534,4.23462 -2.3857,1.72963 -2.08749,2.14713 -1.55071,0.835 z"
                id="path5" />
      </g>
    </symbol>
    <symbol
            id="Eilean a' Gobha">
      <g
              id="layer3"
              style="display:inline">
        <path
                style="display:inline;fill:#666666"
                d="m 137.3568,194.91187 4.4732,-1.84892 -1.84892,4.35391 3.39962,2.26641 0.41645,3.43972 3.00803,1.70941 6.51641,0.10937 3.35386,-1.96754 2.17447,-2.55587 3.57439,-6.83096 3.91878,-0.0473 1.1332,2.8032 2.8032,1.9682 2.62428,-2.26641 8.34995,-3.6382 1.67,-3.57855 4.3539,-2.44535 1.43142,-2.62427 -0.83499,-1.90856 c 0,0 2.86284,-2.62427 2.50499,-6.08354 l -5.18891,1.25249 -1.01392,-1.66999 -7.27639,-2.56463 -1.37178,-0.17893 -2.44535,-1.43142 -2.44534,-0.0596 -5.90461,3.81712 h -7.87282 l -7.21675,2.86285 -3.04177,4.41355 -1.25249,2.92248 -1.13321,-0.0596 -1.78928,-2.50499 -5.30819,2.08749 -1.78927,3.75748 v 1.55071 z"
                id="path8" />
        <path
                style="fill:#666666"
                d="m 133.65897,173.50019 1.01392,2.50499 7.75353,-2.92249 2.3857,1.90857 1.19285,-1.61035 2.02785,1.01392 -2.02785,-5.00997 -1.37177,-0.11929 -1.13321,2.02785 -1.90856,-0.4175 -0.95429,1.49106 -5.24854,1.55071 z"
                id="path9" />
        <path
                style="fill:#666666"
                d="m 151.43245,171.88984 0.47714,3.45927 1.25249,-0.35785 -0.47714,-3.39963 z"
                id="path10" />
        <path
                style="fill:#666666"
                d="m 155.30921,172.90377 0.11929,-1.2525 0.77535,0.47714 0.65607,1.2525 -0.77535,0.65607 z"
                id="path11" />
        <path
                style="fill:#666666"
                d="m 122.50581,184.95156 0.95428,1.2525 2.74356,-0.95428 2.14713,-1.78928 -0.835,-0.95428 -0.89464,0.83499 -1.72963,-0.59642 z"
                id="path12" />
      </g>
    </symbol>
    <symbol
            id="Bròna Cleit">
      <g
              id="layer4"
              style="display:inline">
        <path
                style="fill:#ff5555"
                d="m 74.076053,200.81648 1.491064,-3.33998 5.666043,-5.90461 0.834995,-1.43143 6.799252,-2.68391 5.308187,0.53678 2.624273,-0.29821 1.371778,1.49106 -0.834995,1.90857 -6.143184,5.24854 -6.858893,5.24855 -5.308188,0.77535 -3.996051,-0.835 z"
                id="path13" />
        <path
                style="fill:#ff5555"
                d="m 105.68661,187.75476 4.23462,-2.8032 2.62427,1.31214 -5.96425,3.10141 -0.835,-0.71571 z"
                id="path14" />
      </g>
    </symbol>
  </symbol>
  <symbol id="north">
    <symbol
            id="Eilean Mòr">
      <g
              id="layer5"
              style="display:inline">
        <path
                style="display:inline;fill:#d40000"
                d="m 614.97624,59.211812 -0.84347,1.602599 -1.68695,1.771293 -2.44607,3.964324 -1.93999,1.265209 -0.59043,1.855641 0.25304,2.19303 -0.67478,1.686947 1.68695,2.108682 1.85564,5.482575 1.6026,2.699114 1.51825,0.759126 6.15735,1.771294 4.8078,0.590431 -0.50608,1.771293 2.44607,0.759126 h 1.01217 l 1.4339,0.927821 -0.92782,1.518251 -4.8078,4.048671 6.07301,1.518252 h 3.0365 l 1.6026,-0.674779 0.67478,-1.518251 -0.1687,-0.759126 -0.59043,-1.180863 -3.20519,-4.554754 -0.25305,-1.012168 1.18087,-3.711282 3.96432,-0.92782 3.71128,5.229533 0.0843,1.855641 0.67478,2.024335 3.37389,3.711282 4.04867,3.542587 2.19303,3.036504 1.68695,-0.75913 2.10868,-0.16869 1.9735,1.76702 0.0914,2.48462 -0.95444,0.9219 0.0423,1.13392 -0.61333,0.4283 -0.34441,1.00559 0.8703,0.3586 0.64267,-0.60563 0.85282,-1.22374 1.27668,-2.01613 1.13818,-2.66249 1.26599,-0.15806 2.78346,0.0844 2.86781,-0.33739 2.69911,-1.26521 1.34956,0.75913 7.92865,-0.0844 0.84347,-2.19303 2.19303,-1.855641 1.7713,-0.759126 1.85564,-6.916479 3.87997,-1.26521 -0.33739,-4.554755 -1.4339,-0.168694 -1.18086,-1.433904 1.4339,-0.927821 2.44607,-0.08435 -0.59043,-2.108683 0.75913,-1.939988 -3.3739,-0.253042 -6.32604,-1.012168 -0.50609,-2.024335 10.37472,1.096515 2.36173,-7.169521 1.4339,-1.349557 4.13302,-0.759126 -0.25304,-3.542587 -2.51885,-2.082571 -2.02785,-0.656068 -2.35588,1.282315 -2.77338,1.312136 -2.83302,-0.834996 -2.53481,-1.431421 -7.39568,2.504987 -5.7555,-3.876766 -2.71374,0.208749 -3.28034,-3.131234 -3.84695,-2.862843 2.8032,-1.520885 -2.68132,-3.461314 -2.31955,1.138688 -7.42256,14.29687 -1.39173,0.590431 -0.97,1.644772 -1.6026,0.08435 2.5726,-4.133019 -1.56043,-0.126521 9.10951,-15.983815 -10.2482,0.590431 -13.62209,1.855641 -3.54259,2.150856 -2.53041,9.826462 -2.44608,5.566923 v 1.686946 l -1.4339,0.04217 -0.67478,-3.458239 -4.04867,-3.078677 z"
                id="path16" />
        <path
                style="fill:#d40000"
                d="m 581.15706,79.622811 4.23462,-5.248545 8.46924,1.252494 7.9921,2.56463 1.43142,-0.357856 1.55071,0.298213 4.23462,4.115336 -2.14713,0.477141 -3.04177,-0.23857 -6.85889,1.013923 -2.62428,0.834996 -8.76745,-0.834996 -2.56463,-1.908562 z"
                id="path23" />
      </g>
    </symbol>
    <symbol
            id="Dearc na Sgeir">
      <g
              id="layer6">
        <path
                style="fill:#0000ff"
                d="m 714.9278,51.873596 1.7713,-0.46391 0.88564,-0.506084 1.01217,0.548257 1.05434,-0.801299 1.93999,1.560425 -0.54826,0.46391 -0.54826,-0.253042 -0.92782,0.674779 -1.85564,0.08435 -1.64477,-0.548257 z"
                id="path17" />
      </g>
    </symbol>
    <symbol
            id="Làmh a' Sgeir Bheag">
      <g
              id="layer7">
        <path
                style="fill:#37c837"
                d="m 681.26709,105.955 0.11928,1.66999 0.89464,0.53678 1.28231,-0.20875 1.46125,-0.74553 1.75945,0.835 1.16303,-0.0596 2.53481,-1.16303 1.9682,1.28231 2.05767,-1.37178 1.31214,0.80518 1.55071,1.84892 0.53678,0.62624 2.89266,-3.90658 0.53679,0.0298 0.29821,-0.68589 0.0298,-1.04375 h -1.22267 l -1.96821,-1.72963 -2.35588,-1.16303 -2.08749,-0.50696 -0.20875,2.89266 -1.10338,0.0298 -1.07357,-0.83499 -1.19285,0.47714 -0.59643,-0.59643 -1.19285,0.11929 -1.10339,0.74553 -0.62624,0.23857 -0.89464,1.01392 -0.71571,0.0596 -1.52089,-0.50696 -1.81909,0.835 z"
                id="path18" />
      </g>
    </symbol>
    <symbol
            id="Làmh na Sgeire Mòire">
      <g
              id="layer8"
              style="display:inline">
        <path
                style="fill:#00aa44"
                d="m 691.34668,113.58925 -1.16303,0.71571 0.0895,0.77535 -1.49106,2.05767 0.26839,0.53678 -1.96821,1.90856 -0.62624,0.0298 -1.01393,0.98411 -0.71571,-0.23857 -1.46124,1.07356 -0.53678,-0.23857 -1.01393,0.56661 -0.41749,-0.59643 -0.59643,0.14911 -0.32803,-0.65607 -0.92446,0.26839 -1.22267,1.19285 -1.64018,1.96821 -1.22267,2.35588 -0.74553,0.65606 h -0.59643 l -0.80517,0.62625 -0.62625,0.0298 -0.11928,1.4016 -0.65607,-0.1491 -0.47714,1.07356 -0.77535,-0.4175 -0.20875,-0.68588 -1.2525,1.01392 -0.26839,-0.68589 1.49107,-1.13321 -0.80518,-0.74553 -0.53678,0.0596 -0.50696,-0.68589 -0.14911,-1.01392 0.26839,-0.80518 0.50696,-0.26839 -0.11928,-0.38767 0.86482,-0.59643 0.38767,0.38768 -0.17893,1.61035 0.89464,-0.62625 0.29822,-1.25249 0.62624,-0.11929 0.0597,0.92446 0.47714,0.0596 0.65606,-1.34195 1.43143,-2.05767 -0.35786,-1.04375 -2.47517,-0.89464 0.20875,-1.90856 0.98411,-3.69784 1.90856,-1.52088 2.29624,-1.01392 0.86481,-0.95429 2.95231,0.23857 4.05569,0.77536 1.78928,0.59642 1.58053,0.65607 0.17892,0.74553 1.52089,0.0895 z"
                id="path19" />
      </g>
    </symbol>
    <symbol
            id="Eilean Tighe">
      <g
              id="layer9">
        <path
                style="fill:#d45500"
                d="m 670.74017,152.56566 1.2525,0.17892 1.37178,1.01393 1.90856,0.53678 1.66999,-0.835 1.72963,0.23857 1.84892,-2.08749 2.68392,0.71572 1.84892,0.89463 3.39962,-2.26641 1.13321,-0.17893 1.96821,0.59642 2.02784,-2.26641 4.35391,-1.31214 4.59248,-1.72963 2.86284,-1.66999 3.39962,1.5507 -2.8032,0.89464 -8.23067,3.33998 -4.41355,1.55071 -5.72568,2.02785 -3.57856,1.49106 -3.04177,1.84892 -2.32606,1.90856 3.69784,2.8032 1.84892,0.11929 2.62427,-0.59643 2.98213,-0.0596 0.65607,-0.89464 1.84892,-0.65607 2.14713,0.835 2.74356,1.66999 3.57855,-1.55071 6.38176,-2.20677 4.47319,-1.37178 2.98212,-0.59643 2.26642,-1.84891 2.44535,-3.33999 0.83499,-2.74356 1.31214,-0.89463 3.81712,-6.50104 0.4175,-1.49107 3.99605,-2.56463 1.49106,0.23857 1.78928,-1.31213 2.50499,-0.0596 3.10141,1.1332 1.66999,1.43143 1.37178,-1.55071 0.89464,-1.49106 3.57855,0.17892 1.49107,-0.95428 2.44534,2.44535 2.26642,-1.49107 2.62427,-2.86284 11.74959,-2.50499 4.41354,-6.91853 -5.00997,-2.44535 -3.2207,0.53678 -10.61637,1.07357 -3.6382,0.89464 -8.4096,4.35391 -0.89464,1.1332 v -1.07356 l -1.84892,-1.2525 -1.43142,0.17893 -4.47319,2.14713 -2.02785,-1.19285 -1.90856,-2.86284 -5.42747,-0.53678 -6.38175,-1.96821 -1.72964,1.49107 -1.90856,0.47714 -3.75748,-0.17893 -2.56463,-0.77535 -0.95428,-0.53679 -1.78928,1.31214 -11.27244,4.83105 -3.87677,2.14713 -1.61035,1.49106 -0.77535,2.68392 -0.95428,1.31213 -3.99605,2.38571 -1.31214,1.72963 -1.61035,0.23857 -0.53678,4.53283 -3.16106,2.20678 -2.56463,3.57855 z"
                id="path20" />
        <path
                style="fill:#d45500"
                d="m 734.61735,137.17788 0.4175,1.49106 1.90856,-0.23857 -0.71571,-1.19285 z"
                id="path21" />
      </g>
    </symbol>
    <symbol
            id="Hamasgeir">
      <g
              id="layer10">
        <path
                style="fill:#cdde87"
                d="m 730.86944,142.25174 1.18087,-0.75913 1.56042,1.18087 4.0065,-0.42174 2.95215,0.50608 2.99433,-0.67478 2.44608,-1.26521 1.18086,0.29522 -1.68695,2.65694 -2.90998,2.10868 -2.74129,1.05434 h -4.76562 l -2.82564,-2.57259 z"
                id="path22" />
      </g>
    </symbol>
    <symbol
            id="Gealtaire Beg">
      <g
              id="layer11">
        <path
                style="fill:#7137c8"
                d="m 828.03754,104.59066 0.1687,-1.93998 3.71128,-2.10869 1.77129,0.84348 -0.42173,2.02433 -2.02434,1.51825 -2.27738,0.50609 z"
                id="path24" />
        <path
                style="fill:#7137c8"
                d="m 832.4236,97.758533 1.34956,-1.518252 1.01217,0.759126 0.0843,1.265209 -1.34956,0.759126 -0.92782,-0.253042 z"
                id="path25" />
        <path
                style="fill:#7137c8"
                d="m 835.7975,100.87938 -0.25305,1.26521 1.18087,1.18087 0.75912,-0.92783 0.0844,-1.51825 z"
                id="path26" />
      </g>
    </symbol>
    <symbol
            id="Gealtaire Mòr">
      <g
              id="layer12">
        <path
                style="fill:#aad400"
                d="m 853.00435,66.718722 2.44607,-2.614766 2.78346,-0.506084 3.87998,1.349557 1.18086,3.205198 -2.44607,3.879976 -3.03651,1.26521 -3.28954,-0.843474 -1.4339,-2.614766 -0.33739,-1.26521 z"
                id="path27" />
      </g>
    </symbol>
  </symbol>
  <symbol id="south">
    <symbol
            id="Soraigh">
      <g
              id="layer13">
        <path
                style="fill:#2a7fff"
                d="m 629.14659,298.75817 2.61476,0.33739 5.65127,-2.27738 7.67561,-5.48257 2.95215,0.16869 2.44608,-3.20519 4.4704,-3.50042 0.21087,-0.92782 -3.92215,1.47608 -0.92782,0.29522 -0.25304,-1.39173 -1.09651,0.0422 -0.42174,1.93999 -1.89782,0.37956 -1.39173,-1.47608 -1.47607,0.29522 -0.67478,1.34955 -0.71696,0.29522 -0.25304,1.30738 -6.83213,4.25954 v 1.51825 l -0.6326,0.59044 -1.51826,-0.8013 -2.19303,2.19303 -1.47607,1.81346 z"
                id="path28" />
        <path
                style="fill:#2a7fff"
                d="m 656.13773,282.81653 0.37956,0.71695 0.84347,0.0844 3.66911,-2.27738 2.90998,-2.48824 0.92782,-1.51825 -2.06651,1.34955 -2.61476,1.26521 -2.65694,1.18087 -1.01217,0.6326 z"
                id="path29" />
        <path
                style="fill:#2a7fff"
                d="m 688.3584,273.5805 -0.37956,3.28955 0.33739,1.68694 2.95215,0.75913 1.30738,1.30738 1.34956,1.89782 1.6026,-0.50609 0.37956,-1.72912 -0.33739,-1.6026 -1.98216,-1.56042 -1.47608,-0.42174 -2.10868,-1.77129 -0.84347,-1.22304 z"
                id="path30" />
        <path
                style="fill:#2a7fff"
                d="m 654.99904,294.37211 0.92782,3.3739 -0.42174,1.85564 -1.85564,2.10868 1.89782,1.93999 1.09651,2.06651 3.71128,-1.47608 -0.33739,-0.97 2.23521,-1.77129 2.61476,0.46391 1.98216,-0.59043 4.25954,0.21087 -0.46391,0.88564 -1.81346,0.0422 -0.42174,0.8013 0.33739,0.6326 0.96999,-0.25304 -0.46391,0.67478 -0.75912,0.37956 0.16869,0.59043 2.53042,-1.05434 1.98216,1.43391 3.2052,-2.5726 4.17519,-2.15085 5.65127,-2.95216 2.61477,-1.98216 6.49474,-5.86214 -0.59043,-4.97649 -3.50041,-3.54259 -3.33172,-1.4339 -4.04867,-1.39173 -1.56043,-0.12652 -1.85564,0.59043 -2.65694,1.93999 -4.55475,2.65694 -1.72912,0.16869 -2.86781,0.29522 -2.74129,0.54825 -1.4339,1.43391 -1.18087,2.06651 -1.51825,-0.12652 -4.00649,2.82563 -0.86456,-0.40065 -1.20261,0.21505 -1.05763,0.37569 -0.80141,1.11166 0.64652,0.56389 -0.6926,0.75861 0.3836,0.3221 0.79151,-0.393 0.50074,0.17355 z"
                id="path31" />
      </g>
    </symbol>
    <symbol
            id="Sgeir Toman">
      <g
              id="layer14">
        <path
                style="fill:#00ffcc"
                d="m 630.21306,328.86905 1.4016,0.59642 h 1.75945 l 0.74554,0.86482 0.0895,1.66999 0.32803,1.84892 -1.10338,0.11929 -0.86482,-0.29822 -0.92446,0.11929 -1.16303,0.14911 -0.95428,-0.44732 -0.835,-0.92446 0.0298,-0.89464 1.28232,-1.52089 z"
                id="path32" />
        <path
                style="fill:#00ffcc"
                d="m 635.96856,330.8969 1.34196,-1.46125 0.23857,-1.10338 1.22267,-0.74554 0.86482,-1.46124 0.92446,-0.9841 3.19088,-2.44535 3.99605,-5.1889 1.64017,-1.64017 0.5666,1.8191 1.13321,2.11731 -0.32803,2.83302 0.35785,2.71374 0.4175,1.46124 -0.32803,1.75946 -2.32606,3.19087 -1.19285,0.95428 -0.11929,1.04375 -1.46124,1.01392 -1.07357,-0.0298 -1.5507,-1.07357 -0.65607,0.35786 -1.87874,-1.10339 -0.56661,0.38768 -3.31016,-1.19285 z"
                id="path33" />
        <path
                style="fill:#00ffcc"
                d="m 652.3421,320.51978 0.59043,3.12085 -0.46391,6.07301 -0.54826,1.77129 0.37956,1.93999 1.05435,0.50608 5.31388,-1.26521 1.72912,-0.0422 3.58476,-1.47608 1.81346,-1.34956 1.81347,-2.4039 1.6026,-0.33738 1.81347,-2.36173 0.29521,-1.85564 2.27738,-1.51825 4.38606,-0.54826 2.86781,0.29522 2.48824,-1.7713 1.98217,-2.10868 1.93998,-1.22304 0.88565,-2.19303 -0.42174,-2.15085 -1.64477,-1.34956 -3.45824,-0.0422 -3.37389,-0.50609 -3.37389,-0.42173 -2.48825,-0.0422 -4.47041,1.13869 -5.35605,0.42174 -1.6026,0.0844 -4.55475,2.78346 -0.33739,-0.37957 -2.78346,3.2052 z"
                id="path34" />
      </g>
    </symbol>
    <symbol
            id="Sgeir Righinn">
      <g
              id="layer15">
        <path
                style="fill:#37c8ab"
                d="m 654.11339,340.67879 0.75913,-1.01217 2.19303,-1.09652 2.2352,-0.84347 2.69911,-1.98216 2.95216,-0.63261 3.28955,-0.12652 2.2352,-0.50608 3.0365,-2.48825 2.02434,-1.68694 -0.25304,-0.97 -0.42174,-0.75912 1.18086,-1.26521 2.15086,-1.26521 2.31955,-1.51825 4.25954,-1.81347 1.81347,-0.0843 2.44607,-0.67478 1.18086,0.75913 -1.18086,1.56042 -2.78346,2.44608 -2.61477,2.69911 -2.31955,1.98216 -2.36173,0.50609 -3.12085,3.71128 -2.31955,1.51825 -4.68127,1.18086 -1.89782,-0.0844 -1.93999,1.22304 -1.56042,1.39173 -3.37389,0.84347 -2.4039,0.0422 -2.53042,-0.59043 z"
                id="path35" />
        <path
                style="fill:#37c8ab"
                d="m 684.01451,334.77447 1.64478,1.56043 1.13868,-0.8013 0.63261,-1.26521 1.26521,-0.46391 1.05434,-0.16869 0.6326,-1.01217 -0.59043,-2.48825 -1.34955,-0.71695 -1.7713,0.21087 -0.92782,1.39173 -0.8013,2.10868 z"
                id="path36" />
      </g>
    </symbol>
  </symbol>
  <symbol id="horizon">
    <symbol
            id="hEilean a' Gobha">
      <g
              id="layer16">
        <path
                style="fill:#7c916f"
                d="m 21.807467,489.14607 113.938993,-1.0314 -0.17893,-1.43142 -1.37178,-1.31214 -1.96821,-0.65607 -3.10141,0.35786 -1.61035,-1.07357 -3.04177,1.01393 -1.07356,-0.835 0.11928,-1.07356 0.65607,-0.17893 0.53678,-2.3857 -0.71571,-0.77536 -3.39962,0.17893 -1.61035,-2.20677 -1.72964,-0.29822 -1.37178,-0.77535 -0.89463,-1.49106 -1.55071,1.07356 -0.53678,-1.25249 -1.61035,0.35785 -1.38846,-1.46688 -0.84348,-0.71696 0.0422,-1.58151 -3.28955,-0.0633 -0.75913,0.63261 -2.34063,-1.83456 -0.82239,0.29522 -1.34956,0.71695 -2.214113,-1.1176 -2.19303,-0.59043 -1.26521,0.1476 -0.86456,0.21087 -0.379563,0.73804 -1.623685,-3.18411 -2.329247,-1.78843 -1.789277,-0.77535 -0.834996,-1.46124 -2.982128,-1.43142 -1.908561,0.1491 -3.220698,-1.13321 -2.8032,-0.20875 -2.683915,0.71571 -2.147132,-0.65606 -2.743558,-1.31214 -2.8032,-0.29821 -2.862843,0.77535 -3.429447,-1.10339 -2.8032,-0.41749 -1.908561,-1.31214 -1.461243,-1.75946 -3.161055,0.0298 -1.461243,1.10338 v 0.95428 l 0.357855,0.68589 -0.685889,1.49107 -2.708396,2.35445 h -1.939988 l -0.969994,0.97 -0.08435,1.13869 -1.771293,0.92782 -0.337389,2.19303 -0.885647,1.56042 -1.138689,0.0843 -1.39173,-1.43391 H 35.67893 l 0.126521,2.4039 -0.885647,1.6026 0.168695,0.92782 -1.349557,0.75913 -1.644772,1.4339 -1.897815,0.0844 -0.716952,1.51825 -0.168695,1.26521 0.421737,1.51825 -1.855641,2.61477 -3.373892,1.64477 -0.463911,0.75913 0.632605,1.01216 -1.771293,1.64478 -0.548258,0.71695 z"
                id="path37" />
        <path
                style="fill:#7c916f"
                d="m 137.95003,488.07571 2.74128,-1.4339 0.37957,-1.72912 2.06651,-0.71696 0.42173,-2.19303 2.4039,-0.0843 2.06651,-1.6026 0.84347,0.16869 0.92782,0.88565 h 1.56043 l 0.0844,1.93999 0.8013,0.42173 1.01216,-0.6326 0.42174,-0.92782 2.06651,2.27738 0.16869,1.18086 0.88565,0.29521 1.39173,-0.12652 0.71695,0.97 0.29522,1.09651 z"
                id="path38" />
      </g>
    </symbol>
    <symbol
            id="hBròna Cleit">
      <g
              id="layer17">
        <path
                style="fill:#c83771"
                d="m 164.13631,487.75682 24.39381,-0.0596 -0.17893,-1.90856 0.89464,-0.65607 0.11928,-1.78927 3.10142,-0.53679 0.83499,-1.01392 -0.29821,-2.20677 h -0.59643 l -0.53678,0.47714 -0.59643,-0.4175 0.23857,-2.02785 -1.07356,-0.4175 -0.4175,-0.89464 -1.19285,-0.47714 0.23857,-1.07356 -0.59643,-1.84892 -0.77535,0.35785 -0.17893,-2.14713 -1.01392,0.11929 -0.11929,-1.90856 -1.1332,-1.37178 0.29821,-2.02785 -0.95428,-0.53678 -0.0596,-2.02785 -1.43143,0.65607 -0.47714,-0.77535 0.35786,-1.61035 -0.835,-0.835 -1.01392,1.07357 -0.65607,-0.65607 h -1.07356 l -1.01393,0.53678 0.29821,1.61035 v 1.43142 l -0.77535,1.66999 -2.14713,0.11929 -1.13321,0.71571 -0.59642,1.84892 -1.2525,3.57855 -2.14713,0.11929 -1.31214,4.71176 -1.37178,0.23857 -0.95428,0.35785 -0.65606,0.95428 -1.13321,0.47715 v 0.77535 l 0.47714,0.47714 0.11928,1.66999 -1.66999,2.56463 z"
                id="path39" />
      </g>
    </symbol>
    <symbol
            id="hPoll nan Ròn">
      <g
              id="layer18">
        <path
                d="m 194.09722,480.86163 0.45854,-0.0329 0.29633,0.3123 2.23098,-0.53124 1.21912,-1.15951 2.10645,-0.38268 1.13672,-2.10458 0.89988,-0.32953 1.68779,0.29768 1.43628,-0.48331 0.83222,-0.5786 0.73353,0.9564 0.11925,0.72779 0.49724,0.52539 0.10688,0.61706 0.95037,0.30929 2.07167,-1.03131 1.67259,-1.04664 1.31214,-0.32005 0.9807,1.17194 1.83556,0.21534 1.73522,-0.36203 1.24434,-0.60976 0.31974,-0.77603 0.53473,-0.0188 0.35546,0.41549 0.1581589,0.65834 1.07618,0.0948 1.07076,-0.68974 1.37786,0.14487 0.5995,0.46046 1.38327,-0.50818 1.12308,-1.70436 1.18276,-0.52967 1.18858,0.36904 1.13271,-0.0224 0.81417,-0.37025 0.79382,0.73791 0.10962,0.78101 -1.06736,1.26311 0.46651,0.63294 1.58431,0.0606 0.80712,-0.91359 0.71223,-0.0206 -0.17139,1.80404 0.29809,2.04286 -0.2459,0.45001 0.38929,0.55148 0.14237,0.93058 -0.66195,0.70654 -2.25191,1.22673 -0.2444,2.41873 -44.10945,0.4807 -0.17893,-1.90856 0.89464,-0.65607 0.11928,-1.78927 2.17993,-0.3773 0.92149,-0.15949 0.83499,-1.01392"
                style="fill:#00d400"
                id="path1-8" />
      </g>
    </symbol>
    <symbol
            id="hRoaiream">
      <g
              id="layer19"
              style="display:inline">
        <path
                style="fill:#5aa02c"
                d="m 236.39464,487.10818 2.2539,-5.56846 -0.44194,-2.20971 -0.17678,-3.84489 2.07713,0.57452 2.16551,-0.35355 2.07713,-1.32583 1.94454,-3.84489 2.43068,0.79549 1.23744,1.37002 0.44194,1.06066 -1.59099,1.41422 -1.14905,2.51906 -2.2539,2.16552 -0.70711,0.35355 1.14905,0.70711 0.0442,0.61872 -0.7071,0.7513 -0.30936,3.53553 0.48613,1.32583 z"
                id="path40" />
        <path
                style="fill:#5aa02c"
                d="m 247.2664,487.10818 h 2.2539 l -0.57452,-1.41421 0.13258,-1.63518 -0.26516,-1.01647 -0.53033,-0.92808 -0.0442,-0.83969 -0.48613,0.92808 0.26516,1.45841 -0.48613,0.44194 v 0.88388 l -0.35356,0.53033 0.26517,0.88389 z"
                id="path41" />
        <path
                style="fill:#5aa02c"
                d="m 251.0671,487.15238 107.78959,-0.83969 0.39775,-1.72357 -2.74004,-2.3423 -1.32583,-0.22097 1.14905,-1.59099 0.22097,-2.07712 0.97228,-0.39775 0.22097,-2.60746 -0.48614,-2.07712 -2.91681,-2.51907 -0.48614,-1.41421 -2.51907,-1.01647 -1.94454,-2.2539 -1.5026,-0.57453 -1.5468,-0.44194 -1.59099,-2.51907 -2.47487,-1.14905 -3.40296,-0.17677 -0.7513,-0.70711 -1.41421,-2.96101 -2.65165,-0.83969 -2.82843,-2.12132 -1.01646,-0.0442 -3.0936,-1.67938 -2.2097,0.17678 -1.98874,1.19324 -2.07713,0.30936 -2.34229,2.16551 -0.35355,-0.79549 -1.94455,-0.61872 -1.76776,0.79549 -1.90035,-0.17677 -1.81196,-0.83969 -3.88909,0.48613 -2.47488,1.67938 -2.60745,0.48614 -1.94455,0.88388 -0.53033,1.32583 -1.28163,-0.17678 -1.23743,-0.61872 -2.12132,0.30936 -1.63519,0.7955 -0.7513,0.57452 -4.46361,1.19324 -1.28163,1.72358 -1.28163,-0.13259 -2.34229,2.2981 -5.3033,0.57452 -1.81197,-0.44194 -1.85615,0.44194 -0.70711,1.41422 -1.01646,0.57452 -0.92808,-1.37002 -3.44715,0.83969 -1.14905,-0.17678 -0.88388,1.50261 -2.43068,-0.35356 -1.45841,-1.28163 -0.7513,-0.13258 -0.92808,1.41421 -1.23743,0.17678 -0.7513,0.70711 -1.10486,-0.48614 -2.12132,-0.0884 -1.10485,1.37002 -1.76777,0.39775 -0.7513,-0.22097 -0.30936,-0.44194 -1.23744,0.22097 -0.107,1.90213 0.23437,0.25781 0.44531,1.06641 -1.58984,1.41406 0.31006,1.19322 -0.0442,3.66812 1.70148,0.41984 0.97227,2.09922 -0.12153,1.66833 -0.3204,1.22639 z"
                id="path42" />
      </g>
    </symbol>
    <symbol
            id="hGealtaire Mòr">
      <g
              id="layer20"
              style="display:inline">
        <path
                style="fill:#abc837"
                d="m 864.7032,493.69311 37.9628,0.26517 -0.35355,-1.28163 -1.23744,-0.83969 -0.0442,-1.19324 -2.29809,-1.14905 -0.97227,1.32582 -0.61872,-0.0442 0.53033,-1.10485 -0.26517,-0.75131 -2.03293,-0.79549 -0.61872,-0.0884 -0.88388,-1.06066 -0.39775,-1.01647 -1.85615,-1.5026 -1.32583,-0.0884 -2.20971,1.06066 -1.01646,-0.13258 -0.30936,-0.30936 0.39774,-0.92807 -1.01646,-1.01647 -1.72358,0.26516 -1.94454,1.45841 -0.79549,-0.66291 -2.20971,-0.83969 -3.31457,1.59099 -1.32582,1.28163 -1.72357,-0.22097 -1.50261,0.48614 -0.88388,-0.0884 -0.88388,0.88388 -2.91682,0.70711 -1.06066,3.22617 -0.83969,1.37002 z"
                id="path43" />
      </g>
    </symbol>
    <symbol
            id="hGealtaire Beg">
      <g
              id="layer21"
              style="display:inline;fill:#ff00ff">
        <path
                style="display:inline;fill:#ff00ff"
                d="m 678.5,495.3125 37.375,0.25 0.0625,-0.875 -0.4375,-0.1875 -0.3125,-0.625 0.25,-0.5625 -0.83981,-0.79053 -0.86178,0.28726 -0.72921,-0.88388 -1.10485,-0.19888 -0.7513,0.83969 -0.72921,-0.64081 -1.34792,-0.37565 -0.13258,0.39775 -1.14905,-0.15468 -0.46404,-0.88389 -1.32582,-1.34792 -2.71795,0.57452 0.72921,-1.21534 -0.26517,-0.7292 -0.95017,-0.48614 -0.7734,0.15468 -2.14342,-0.37565 -0.57452,-0.79549 0.35355,-0.59662 -1.14905,-0.7513 -2.14341,-0.11049 -1.63519,1.14905 -2.78423,-0.26517 -0.81759,1.45841 -1.14905,-0.90598 -0.7955,-0.0663 -0.53033,0.55243 -2.09922,0.48613 -1.37002,0.46404 -1.34792,1.25954 -1.21534,-0.50824 -0.70711,-0.0884 -0.68501,0.48614 0.30936,0.64082 -1.41421,0.66291 -0.48614,-0.0442 -0.13258,0.86179 -0.7513,0.7955 0.46404,0.55242 0.11048,1.14905 -0.95017,0.48614 z"
                id="path44" />
        <path
                style="display:inline;fill:#ff00ff"
                d="m 621.07812,492.625 -10.70312,-0.0937 -0.5625,-0.29688 -0.57813,-0.0156 -0.14062,-0.625 0.75,-2.21875 1.34375,-1.875 1,-2.09375 0.45312,-0.28125 1.35938,-1.98438 1.0625,-0.17187 0.71875,-0.95313 0.51562,0.0312 0.38863,0.50931 0.50823,0.0221 0.7955,-0.24307 0.44194,0.22097 0.57452,-0.61872 0.41985,0.11049 0.64082,0.70711 -0.0663,1.92244 v 0.55243 l 0.53033,0.99437 0.26517,0.0442 0.11048,-0.88388 0.46404,0.26517 0.7955,1.17114 0.11048,2.62955 -0.39774,1.06066 -0.57453,0.33146 z"
                id="path45" />
        <path
                style="display:inline;fill:#ff00ff"
                d="m 627,492.8125 47.5,0.1875 1.25,-0.1875 0.4375,-0.90625 0.34375,-0.0312 0.3125,-1.1875 -0.625,-0.28125 -0.25,-0.75 -0.0937,-0.84375 -0.84375,-0.625 -1.65625,-0.125 -0.5625,-1.59375 -1.5625,-0.625 -1.34375,-2.875 -0.65625,-0.375 -2.28125,-0.28125 -1.59375,-1.09375 -0.5625,-0.84375 -1.25,0.3125 -0.75,0.65625 -0.4375,-0.375 0.40625,-0.40625 -0.0937,-0.65625 -0.4375,-0.5 0.0625,-0.78125 0.5625,-0.65625 -0.1875,-0.78125 -1.1875,-1 v -0.96875 l 0.40625,-0.5 -0.75,-0.96875 -0.0625,-1.6875 -1.5625,-1.21875 -1.53125,-0.375 -1.03125,0.375 -0.375,-0.625 -1.34375,0.0312 -1.875,1.03125 -0.90625,1.84375 -1.71875,1.4375 -1.6875,0.71875 -0.6875,0.4375 -1.5,-0.0625 -1.125,1.40625 -0.90625,1.40625 -0.875,0.375 -0.21875,-0.71875 -1.34375,0.53125 -1.71875,1.09375 -0.0312,0.875 -0.4689,0.375 -0.78125,-0.21875 L 639,481.875 l -0.4375,1.03125 -0.9375,0.6875 -0.6875,-0.625 -0.6875,0.8125 -1.71875,1.4375 -0.7426,1.84524 -2.56327,1.81196 -1.01646,1.41421 -0.57453,0.17678 -0.53033,-0.57452 -0.7071,0.88388 -0.26517,0.83969 -0.92808,0.61872 z"
                id="path46" />
      </g>
    </symbol>
    <symbol
            id="hEilean Tighe">
      <g
              id="layer22"
              style="display:inline">
        <path
                style="display:inline;fill:#d45500"
                d="m 640.68616,479.74741 -0.0312,0.875 -0.4689,0.375 -0.78125,-0.21875 -0.40625,1.09375 -0.4375,1.03125 -0.9375,0.6875 -0.6875,-0.625 -0.6875,0.8125 -1.71875,1.4375 -0.7426,1.84524 -2.56327,1.81196 -1.01646,1.41421 -0.57453,0.17678 -0.63633,-0.5624 -6.21228,0.0182 -0.50972,-0.47225 -0.11048,-2.62955 -0.7955,-1.17114 -0.46404,-0.26517 -0.11048,0.88388 -0.26517,-0.0442 -0.53033,-0.99437 v -0.55243 l 0.0663,-1.92244 -0.64082,-0.70711 -0.41985,-0.11049 -0.57452,0.61872 -0.44194,-0.22097 -0.7955,0.24307 -0.50823,-0.0221 -0.38863,-0.50931 -0.51562,-0.0312 -0.71875,0.95313 -1.0625,0.17187 -1.35938,1.98438 -0.45312,0.28125 -1,2.09375 -1.34375,1.875 -1.30478,0.58505 -100.74647,0.26629 0.22051,-1.47003 0.26562,0.21052 0.70711,-1.96664 0.99437,-2.54117 0.37565,-1.06066 0.79549,-0.68501 0.97228,-1.90035 0.59662,-0.55242 0.0663,-0.37565 0.83969,-1.12696 0.7071,-0.37565 0.64082,0.0221 0.83969,0.88388 0.7513,0.0442 0.48614,-0.35355 h 0.50823 l 0.46404,0.92807 0.79549,-0.22097 2.14342,-2.91681 3.29247,-2.71795 4.83926,-2.2318 3.8007,-1.10486 1.39211,-1.06066 5.70105,-2.85052 1.08276,-0.44194 0.90598,-1.23744 2.18761,-0.92808 0.90598,0.64082 1.12695,-0.90598 2.45278,-0.39775 2.05503,-0.81759 4.28683,-1.14905 2.56327,-0.33146 3.99957,-1.21534 1.37002,-0.95017 3.35876,-0.24307 3.20407,-0.7292 2.34229,-0.7955 3.75651,-0.66291 1.45841,0.11049 0.7513,-0.48614 3.66811,-0.53033 0.39775,1.32583 1.12695,0.22097 0.13259,0.77339 2.03293,0.30936 0.86178,0.83969 -0.33145,0.66292 0.64081,1.76776 2.38649,1.23744 0.88388,-0.7955 0.99437,-0.46404 1.08276,0.15468 2.76213,-0.95017 2.85053,-1.4805 0.33145,-1.08276 0.22098,-0.90598 0.97227,-0.22097 0.86178,0.7513 1.03857,-0.28726 1.32582,1.5026 -0.7071,1.41421 0.53033,0.50823 2.67374,0.46404 0.88389,1.12695 1.12695,-0.39774 3.93328,2.38648 4.44151,0.0442 4.04377,0.90598 1.30373,0.64081 1.70147,0.0884 4.86136,1.63518 2.89472,2.12133 1.32583,2.18761 2.34229,1.01646 1.25953,2.54117 0.68501,0.88388 2.12132,0.83969 0.66292,1.01647 0.79549,-0.15468 0.83969,0.30936 0.59662,0.7513 z"
                id="path46-6" />
      </g>
    </symbol>
    <symbol
            id="hDearc na Sgeir">
      <g
              id="layer23"
              style="display:inline">
        <path
                style="fill:#0000ff"
                d="M 813.0625,490.3125 H 842.75 l -1,-0.9375 -0.75,-0.1875 -0.8125,-1.625 0.1875,-1.9375 -2.40625,0.1875 -0.84375,0.3125 -0.75,-0.6875 -1.40625,0.59375 -0.75,-0.1875 -1.03125,-1.21875 0.0312,-0.46875 0.875,-0.40625 -0.0937,-1.3125 0.15625,-1.0625 -1.75,-0.8125 -1.1875,1.125 -1.5625,-0.0937 -2.875,2.375 -1.5625,-0.96875 -2.1875,0.8125 -0.3125,0.5625 -1.25,1.1875 -1.53125,-0.96875 h -0.59375 l -1.25,0.9375 -0.59375,-0.0625 -0.40625,0.6875 -0.6875,-0.25 -0.625,0.0312 0.15625,1.03125 -1.5,-1 0.3125,1.625 -1.03125,1.84375 z"
                id="path49" />
      </g>
    </symbol>
    <symbol
            id="hEilean Mòr">
      <g
              id="layer24">
        <path
                style="fill:#ff6600"
                d="m 813.04399,488.95575 0.67023,0.47373 -0.64842,0.88281 c -35.51538,-0.0779 -71.03476,-0.14514 -106.55018,-0.21854 l -0.51821,-0.54081 -2.71795,0.57452 0.72921,-1.21534 -0.26517,-0.7292 -0.95017,-0.48614 -0.7734,0.15468 -2.14342,-0.37565 -0.57452,-0.79549 0.35355,-0.59662 -1.14905,-0.7513 -2.14341,-0.11049 -1.63519,1.14905 -2.78423,-0.26517 -0.81759,1.45841 -1.14905,-0.90598 -0.7955,-0.0663 -0.53033,0.55243 -2.09922,0.48613 -1.37002,0.46404 -1.34792,1.25954 -1.21534,-0.50824 -0.70711,-0.0884 -0.68501,0.48614 0.30936,0.64082 -1.41421,0.66291 -0.48614,-0.0442 -0.13258,0.86179 -2.84441,10e-4 0.18064,-0.68643 -0.625,-0.28125 -0.25,-0.75 -0.0937,-0.84375 -0.84375,-0.625 -1.65625,-0.125 -0.5625,-1.59375 -1.5625,-0.625 -1.34375,-2.875 -0.65625,-0.375 -0.0781,-0.50781 0.10914,-0.38349 0.7734,-0.61872 0.57452,-2.3202 0.70711,-0.35355 0.30936,-4.02167 0.48613,-0.0442 1.17115,1.4805 0.48613,-0.11048 0.28727,-1.70148 0.53033,0.44194 2.89471,-2.2318 0.48614,-2.09923 0.7513,-0.22097 1.14905,0.7955 1.98874,0.15468 1.56889,-0.72921 1.28163,-0.0442 0.57453,0.39775 7.04897,-2.36439 1.12695,0.55243 5.39169,-2.07713 v -0.7955 l 9.14819,-2.9831 1.30373,-0.0884 4.75087,-2.47487 0.92808,-0.0442 6.31977,-3.13778 5.52427,-1.83406 2.36439,-0.30936 6.56283,-1.72358 3.0715,-1.14904 2.43068,-0.39775 2.76213,-0.24307 2.05503,-0.39775 2.20971,-0.81759 2.38649,-0.33146 2.2097,-1.10485 1.03857,-0.22097 1.98874,-2.34229 0.53033,-0.26517 2.60745,0.30936 0.44194,0.48614 3.55763,0.11048 3.60183,1.67938 1.94454,-1.83406 1.21534,0.7955 2.45278,3.57973 0.79549,4.04376 1.17115,-0.50823 2.47487,0.11049 -0.0442,5.03813 0.7292,1.63519 0.8176,0.33145 2.40858,1.50261 2.60745,0.44194 1.34793,0.7734 0.48613,0.66291 -0.7292,0.86178 3.0494,0.0884 2.58536,2.54117 1.98873,0.81759 1.45841,-0.0884 1.5468,1.39212 1.45841,0.0663 0.95017,2.2539 1.5247,1.32583 0.39775,0.92807 -0.17678,1.98874 -1.70148,1.01647 -0.11048,1.39211 -1.43631,1.21534 0.19887,1.76777 0.88389,0.19888 1.10485,0.17677 0.50823,1.03857 -0.37565,1.32582 1.5689,0.7955 1.34792,0.17677 2.65165,-1.59099 1.03856,0.0442 1.83406,1.28163 0.97227,1.10485 1.5026,-0.0884 1.34793,0.39775 1.30372,1.06066 z"
                id="path49-1" />
      </g>
    </symbol>
  </symbol>
  <use
          x="10"
          y="10"
          href="#Roaiream"
          id="use1"
          transform="translate(-10.002392,-10.002392)" />
  <use
          x="150"
          y="10"
          href="#Poll%20nan%20R%C3%B2n"
          id="use2"
          transform="translate(-149.90591,-10.038358)" />
  <use
          x="300"
          y="10"
          href="#Eilean%20a'%20Gobha"
          id="use3"
          transform="translate(-299.88272,-10.019949)" />
  <use
          x="10"
          y="10"
          href="#Eilean%20M%C3%B2r"
          id="use4"
          transform="translate(-10.01995,-10.019949)" />
  <use
          x="120"
          y="10"
          href="#Eilean%20Tighe"
          id="use5"
          transform="translate(-119.95035,-10.043324)" />
  <use
          x="230"
          y="10"
          href="#Dearc%20na%20Sgeir"
          id="use6"
          transform="translate(-229.98194,-10.022858)" />
  <use
          x="340"
          y="10"
          href="#L%C3%A0mh%20a'%20Sgeir%20Bheag"
          id="use7"
          transform="translate(-339.96255,-10.079592)" />
  <use
          x="450"
          y="10"
          href="#L%C3%A0mh%20na%20Sgeire%20M%C3%B2ire"
          id="use8"
          transform="translate(-450.00308,-10.019949)" />
  <use
          x="560"
          y="10"
          href="#Hamasgeir"
          id="use9"
          transform="translate(-559.92981,-10.027398)" />
  <use
          x="670"
          y="10"
          href="#Gealtaire%20Beg"
          id="use10"
          transform="translate(-669.97068,-10.206026)" />
  <use
          x="780"
          y="10"
          href="#Gealtaire%20M%C3%B2r"
          id="use11"
          transform="translate(-779.98648,-9.9987744)" />
  <use
          x="890"
          y="10"
          href="#Soraigh"
          id="use12"
          transform="translate(-889.96967,-9.9392388)" />
  <use
          x="1000"
          y="10"
          href="#Sgeir%20Toman"
          id="use13"
          transform="translate(-1000.0217,-10.03733)" />
  <use
          x="1110"
          y="10"
          href="#Sgeir%20Righinn"
          id="use14"
          transform="translate(-1109.9479,-10.01995)" />
  <use
          x="1440"
          y="10"
          href="#Br%C3%B2na%20Cleit"
          id="use17"
          transform="translate(-1439.9772,-10.03733)" />
  <use
          x="1550"
          y="10"
          href="#hEilean%20a'%20Gobha"
          id="use15"
          transform="translate(-1549.9994,-10.050924)" />
  <use
          x="1550"
          y="10"
          href="#hBr%C3%B2na%20Cleit"
          id="use16"
          transform="translate(-1549.9994,-10.050924)" />
  <use
          x="1550"
          y="10"
          href="#hRoaiream"
          id="use18"
          transform="translate(-1549.9994,-10.050924)" />
  <use
          x="1550"
          y="10"
          href="#hEilean%20Tighe"
          id="use19"
          transform="translate(-1549.9994,-10.050924)" />
  <use
          x="1550"
          y="10"
          href="#hGealtaire%20Beg"
          id="use20"
          transform="translate(-1549.9994,-10.050924)" />
  <use
          x="1550"
          y="10"
          href="#hDearc%20na%20Sgeir"
          id="use21"
          transform="translate(-1549.9994,-10.050924)" />
  <use
          x="1550"
          y="10"
          href="#hGealtaire%20M%C3%B2r"
          id="use22"
          transform="translate(-1549.9994,-10.050924)" />
  <use
          x="1550"
          y="10"
          href="#hEilean%20M%C3%B2r"
          id="use23"
          transform="translate(-1549.9994,-10.050924)" />
  <use
          x="1550"
          y="10"
          href="#hPoll%20nan%20R%C3%B2n"
          id="use24"
          transform="translate(-1549.9994,-10.050924)" />
</svg>